HIERARCHY
ROOT Hips
{
	OFFSET -3.958830 18.904000 13.208200
	CHANNELS 6 Xposition Yposition Zposition Zrotation Yrotation Xrotation 
	JOINT LHipJoint
	{
		OFFSET 0.000000 0.000000 0.000000
		CHANNELS 3 Zrotation Yrotation Xrotation
		JOINT LeftUpLeg
		{
			OFFSET 1.800000 -1.400000 0.085000
			CHANNELS 3 Zrotation Yrotation Xrotation
			JOINT LeftLeg
			{
				OFFSET 2.215000 -6.000000 0.000000
				CHANNELS 3 Zrotation Yrotation Xrotation
				JOINT LeftFoot
				{
					OFFSET 2.500000 -6.900000 0.000000
					CHANNELS 3 Zrotation Yrotation Xrotation
					JOINT LeftToeBase
					{
						OFFSET 0.200000 -0.500000 1.950000
						CHANNELS 3 Zrotation Yrotation Xrotation
						End Site
						{
							OFFSET 0.000000 0.000000 0.000000
						}
					}
				}
			}
		}
	}
	JOINT RHipJoint
	{
		OFFSET 0.000000 0.000000 0.000000
		CHANNELS 3 Zrotation Yrotation Xrotation
		JOINT RightUpLeg
		{
			OFFSET -1.800000 -1.400000 0.085000
			CHANNELS 3 Zrotation Yrotation Xrotation
			JOINT RightLeg
			{
				OFFSET -2.215000 -6.000000 0.000000
				CHANNELS 3 Zrotation Yrotation Xrotation
				JOINT RightFoot
				{
					OFFSET -2.500000 -6.900000 0.000000
					CHANNELS 3 Zrotation Yrotation Xrotation
					JOINT RightToeBase
					{
						OFFSET -0.200000 -0.500000 1.950000
						CHANNELS 3 Zrotation Yrotation Xrotation
						End Site
						{
							OFFSET 0.000000 0.000000 0.000000
						}
					}
				}
			}
		}
	}
	JOINT LowerBack
	{
		OFFSET 0.000000 0.000000 0.000000
		CHANNELS 3 Zrotation Yrotation Xrotation
		JOINT Spine
		{
			OFFSET -0.087000 1.940000 -0.288900
			CHANNELS 3 Zrotation Yrotation Xrotation
			JOINT Spine1
			{
				OFFSET 0.000000 1.950000 0.060000
				CHANNELS 3 Zrotation Yrotation Xrotation
				JOINT Neck
				{
					OFFSET 0.000000 0.000000 0.000000
					CHANNELS 3 Zrotation Yrotation Xrotation
					JOINT Neck1
					{
						OFFSET 0.000000 1.600000 0.340000
						CHANNELS 3 Zrotation Yrotation Xrotation
						JOINT Head
						{
							OFFSET 0.000000 1.667000 -0.240000
							CHANNELS 3 Zrotation Yrotation Xrotation
							End Site
							{
								OFFSET 0.000000 0.000000 0.000000
							}
						}
					}
				}
				JOINT LeftShoulder
				{
					OFFSET 0.000000 0.000000 0.000000
					CHANNELS 3 Zrotation Yrotation Xrotation
					JOINT LeftArm
					{
						OFFSET 2.700000 1.550000 -0.730000
						CHANNELS 3 Zrotation Yrotation Xrotation
						JOINT LeftForeArm
						{
							OFFSET 5.450000 0.000000 0.000000
							CHANNELS 3 Zrotation Yrotation Xrotation
							JOINT LeftHand
							{
								OFFSET 3.450000 0.000000 0.000000
								CHANNELS 3 Zrotation Yrotation Xrotation
								JOINT LeftHandIndex1
								{
									OFFSET 0.750000 0.000000 0.000000
									CHANNELS 3 Zrotation Yrotation Xrotation
									End Site
									{
										OFFSET 0.000000 0.000000 0.000000
									}
								}
							}
						}
					}
				}
				JOINT RightShoulder
				{
					OFFSET 0.000000 0.000000 0.000000
					CHANNELS 3 Zrotation Yrotation Xrotation
					JOINT RightArm
					{
						OFFSET -2.700000 1.550000 -0.730000
						CHANNELS 3 Zrotation Yrotation Xrotation
						JOINT RightForeArm
						{
							OFFSET -5.450000 0.000000 0.000000
							CHANNELS 3 Zrotation Yrotation Xrotation
							JOINT RightHand
							{
								OFFSET -3.450000 0.000000 0.000000
								CHANNELS 3 Zrotation Yrotation Xrotation
								JOINT RightHandIndex1
								{
									OFFSET -0.750000 0.000000 0.000000
									CHANNELS 3 Zrotation Yrotation Xrotation
									End Site
									{
										OFFSET 0.000000 0.000000 0.000000
									}
								}
							}
						}
					}
				}
			}
		}
	}
}
MOTION
Frames: 8
Frame Time: 0.016667
-0.753430 16.685420 -1.238670 -2.176847 -12.208340 3.532875 -14.667278 11.463762 3.159732 17.724297 -2.629361 -23.004699 -13.122750 12.732386 30.447656 -0.129028 7.406872 1.948373 0.533840 0.276070 0.392880 18.865749 -11.702522 2.781864 -10.487901 3.677245 -30.151369 4.016722 -7.782530 33.717730 -0.119587 -5.240190 2.541894 0.367880 0.309190 0.110790 -5.131086 3.059048 -7.023892 17.912784 0.602922 2.801907 -4.653778 -0.410559 8.201233 4.275097 10.806761 -8.500975 21.093628 -20.754543 19.932479 -4.808160 -11.735420 -0.152590 -13.291967 -6.050063 4.362282 -34.241597 2.625186 -9.255988 34.292936 -58.963917 -17.343596 -3.613502 3.068486 0.033740 0.346530 -0.330350 0.232010 5.049960 -0.964637 3.005436 70.960339 15.066702 -0.124623 11.272669 35.727917 -0.274877 2.001401 -1.926509 -0.187460 0.154190 -0.180060 -0.142530 
-0.753340 16.677680 -1.241150 -2.201032 -12.214717 3.421622 -14.653341 11.444243 3.163870 17.832883 -2.625591 -23.058828 -13.014052 12.799242 30.723775 -0.133600 7.457003 1.933373 0.505020 0.228040 0.383920 18.878005 -11.720833 2.799933 -10.510017 3.727846 -30.271446 3.953912 -7.856139 34.120183 -0.116749 -5.285976 2.531415 0.342360 0.314210 0.093500 -5.168645 3.131863 -7.054790 18.165618 0.602093 2.957724 -4.873714 -0.368634 8.228973 4.273469 10.917392 -8.734853 21.412042 -20.954996 20.303841 -4.472720 -12.099310 0.096610 -12.817102 -6.296725 4.503267 -34.388135 2.643804 -9.288520 34.041537 -58.473945 -17.016747 -3.611972 3.049445 0.052260 0.338090 -0.344810 0.215980 4.533002 -0.737387 3.232834 71.245069 15.269136 -0.042707 11.250991 35.862837 -0.273929 2.000477 -1.904777 -0.208620 0.164680 -0.159060 -0.154620 
-0.749850 16.660500 -1.245460 -2.329129 -12.329748 3.255266 -14.620165 11.386991 3.167750 18.110367 -2.577364 -23.179814 -12.824269 12.953485 31.298755 -0.114504 7.533615 1.901484 0.488820 0.206410 0.379370 18.911056 -11.756682 2.838597 -10.635208 3.824240 -30.503048 4.065983 -8.055994 34.782166 -0.133583 -5.373833 2.501202 0.324410 0.303120 0.070130 -5.267408 3.313177 -7.104239 18.958272 0.603344 3.143159 -5.458146 -0.312040 8.367198 4.344821 11.103422 -9.002085 22.006374 -21.368730 20.866489 -3.708650 -12.739340 -0.042040 -12.037713 -6.415447 4.624658 -34.348383 2.620686 -9.230251 33.827788 -57.580562 -16.463601 -3.593966 3.037042 0.070560 0.311680 -0.340690 0.204130 3.585133 -0.688915 3.538803 72.251534 15.767695 0.203987 10.840957 36.406782 -0.404450 2.007380 -1.882065 -0.216350 0.177130 -0.151200 -0.157150 
-0.741870 16.646410 -1.253070 -2.434160 -12.168575 2.923635 -14.580845 11.360272 3.156400 18.248279 -2.576533 -23.373865 -12.138381 12.966591 32.260804 -0.085681 7.556642 1.875758 0.501930 0.225470 0.397940 18.944401 -11.820318 2.865235 -10.751958 3.823357 -30.544088 4.098133 -8.226675 35.386542 -0.166549 -5.440068 2.470230 0.317260 0.256750 0.047310 -5.371301 3.484374 -7.149668 19.812640 0.494164 3.442954 -6.127998 -0.355944 8.568472 4.420145 11.335319 -9.301697 22.766551 -21.934256 21.788389 -2.850810 -13.402550 -0.546540 -11.253073 -6.595388 4.771894 -34.165685 2.491968 -9.166720 33.618615 -56.558742 -15.866221 -3.545985 3.041001 0.092420 0.262530 -0.309280 0.195780 2.658753 -0.624383 3.853780 73.407816 16.418111 0.468103 9.759944 37.055886 -0.755419 2.027131 -1.864790 -0.200720 0.172830 -0.169630 -0.156850 
-0.730720 16.638460 -1.263760 -2.420982 -12.006581 2.463324 -14.545874 11.370560 3.142950 18.286807 -2.557174 -23.484258 -11.385849 12.932036 33.198697 -0.057787 7.569292 1.847791 0.500430 0.226520 0.398380 18.966761 -11.884685 2.881122 -11.005268 3.777772 -30.371716 4.188782 -8.406627 35.826316 -0.195271 -5.500795 2.442311 0.294950 0.212500 0.037730 -5.449382 3.586778 -7.199181 20.382210 0.395324 3.963654 -6.542601 -0.371136 8.671003 4.317421 11.451766 -9.657160 23.272950 -22.136808 23.108551 -1.959170 -13.846850 -0.902500 -10.529272 -6.858411 4.971067 -34.025680 2.554293 -9.196911 33.232806 -55.798275 -15.324038 -3.502058 3.054685 0.119230 0.218700 -0.278390 0.183070 2.115223 -0.354014 4.160181 73.900542 16.964761 0.534981 8.951447 37.930453 -0.988709 2.043723 -1.842695 -0.181140 0.153600 -0.173660 -0.157460 
-0.720490 16.636020 -1.271920 -2.378045 -11.771280 2.024585 -14.529230 11.420143 3.115139 18.328477 -2.504722 -23.448007 -10.643944 12.793675 33.763724 -0.033474 7.525299 1.853877 0.507050 0.239890 0.419210 18.970817 -11.927805 2.882054 -11.200875 3.706816 -30.123602 4.201036 -8.495590 36.072985 -0.222044 -5.524967 2.434157 0.280140 0.172470 0.029190 -5.472910 3.584237 -7.225032 20.484132 0.383265 4.405302 -6.576334 -0.361944 8.780144 4.175428 11.556470 -10.009125 23.675379 -22.228778 24.365849 -1.850070 -13.709950 -0.977090 -10.068373 -7.255194 5.163021 -33.590841 2.611730 -9.251344 33.047812 -55.512972 -15.086404 -3.461012 3.049746 0.137370 0.187890 -0.242410 0.180020 1.913223 0.011162 4.446124 73.891651 17.122178 0.280574 8.588016 39.121343 -1.114898 2.059297 -1.829928 -0.164040 0.141950 -0.196460 -0.158880 
-0.707300 16.636670 -1.280140 -2.341272 -11.480758 1.720471 -14.520304 11.471258 3.080329 18.321468 -2.435008 -23.407774 -9.991222 12.620886 34.082953 -0.005019 7.461668 1.874141 0.514330 0.251550 0.431330 18.971684 -11.942821 2.894471 -11.394293 3.709820 -30.054552 4.245264 -8.615606 36.480987 -0.248932 -5.589492 2.415181 0.265510 0.149100 0.035290 -5.482472 3.539407 -7.245047 20.480372 0.456758 4.745387 -6.543822 -0.263777 8.799716 3.982250 11.523372 -10.176422 23.561263 -21.861334 25.433012 -1.878650 -13.245730 -0.727110 -9.881165 -7.591015 5.241696 -32.886839 2.443924 -9.229051 33.159674 -55.777023 -15.205657 -3.432509 3.058103 0.138620 0.174490 -0.217010 0.186660 2.072008 0.371278 4.598269 73.647741 17.128148 -0.005358 8.229569 39.929286 -1.228557 2.074397 -1.831038 -0.141080 0.121250 -0.219190 -0.153300 
-0.691170 16.638750 -1.285880 -2.501003 -11.167398 1.545622 -14.509608 11.521980 3.052388 18.529410 -2.310246 -23.362215 -9.436298 12.427021 34.131111 0.035183 7.364480 1.902777 0.530840 0.291380 0.439230 18.975206 -11.963160 2.891103 -11.220457 3.731833 -29.873911 4.013637 -8.520983 36.579255 -0.269757 -5.579191 2.421501 0.261650 0.126760 0.053620 -5.498953 3.501218 -7.252302 20.693870 0.538138 4.892787 -6.769086 -0.137662 8.860690 3.880692 11.399960 -10.207725 23.103259 -21.020071 26.337668 -2.155020 -12.191400 -0.511310 -9.623359 -7.815253 5.199742 -31.912757 1.930268 -9.111895 33.591338 -56.413000 -15.596097 -3.407593 3.080778 0.119980 0.170370 -0.183220 0.202990 1.975517 0.620786 4.729893 73.657514 17.131553 -0.085862 8.207536 40.279016 -1.251918 2.095867 -1.853818 -0.101080 0.089790 -0.252910 -0.134200 
